# xmcd
#
# Track frame offsets: 
#        151
#        15088
#        27556
#        39189
#        51085
#        63270
#        75629
#        87645
#        99564
#        112222
#        123977
#        136734
#        149211
#        162353
#        175102
#        188130
#        203193
#        215528
#
# Disc length: 3048 seconds
#
# Revision: 0
# Processed by: cddbd v1.4PL0 Copyright (c) Steve Scherf et al.
# Submitted via: ExactAudioCopy v0.90b4
#
DISCID=fc0be612
DTITLE=Memphis Minnie - The Best Of
DYEAR=1900
DGENRE=Acoustic
TTITLE0=Night Watchman Blues
TTITLE1=Down Home Girl
TTITLE2=Kid Man Blues
TTITLE3=Broken Heart
TTITLE4=Moaning Blues
TTITLE5=I'm So Glad
TTITLE6=Looking The World Over
TTITLE7=I'm Not A Bad Gal
TTITLE8=Me And My Chaffeur Blues
TTITLE9=In My Girlish Days
TTITLE10=Boy Friend Blues
TTITLE11=Nothing In Rambling
TTITLE12=My Baby Don't Want Me No More
TTITLE13=Mooshine
TTITLE14=Joe Louis Strut
TTITLE15=Bumble Bee
TTITLE16=I'm Talking About You
TTITLE17=Frisco Town
EXTD=
EXTT0=
EXTT1=
EXTT2=
EXTT3=
EXTT4=
EXTT5=
EXTT6=
EXTT7=
EXTT8=
EXTT9=
EXTT10=
EXTT11=
EXTT12=
EXTT13=
EXTT14=
EXTT15=
EXTT16=
EXTT17=
PLAYORDER=
